<?xml version="1.0" standalone="no"?>
<!DOCTYPE svg PUBLIC "-//W3C//DTD SVG 20010904//EN"
 "http://www.w3.org/TR/2001/REC-SVG-20010904/DTD/svg10.dtd">
<svg version="1.0" xmlns="http://www.w3.org/2000/svg"
 width="1024.000000pt" height="1024.000000pt" viewBox="0 0 1024.000000 1024.000000"
 preserveAspectRatio="xMidYMid meet">

<g transform="translate(0.000000,1024.000000) scale(0.100000,-0.100000)"
fill="#000000" stroke="none">
<path d="M5020 9721 c-36 -10 -90 -30 -120 -46 -71 -36 -189 -155 -220 -222
l-24 -52 -71 -11 c-38 -6 -92 -16 -118 -21 -26 -6 -76 -15 -110 -20 -34 -5
-82 -13 -107 -19 -25 -5 -74 -16 -110 -24 -162 -35 -205 -47 -346 -94 -146
-49 -194 -67 -364 -139 -144 -61 -132 -62 -203 14 -73 77 -110 102 -197 133
-182 64 -385 16 -522 -122 -61 -62 -85 -100 -113 -186 -16 -50 -17 -132 -3
-302 3 -34 -1 -38 -102 -113 -208 -154 -308 -239 -456 -389 -165 -167 -243
-252 -346 -375 l-67 -81 -58 15 c-196 50 -375 6 -507 -124 -73 -72 -112 -151
-132 -271 -14 -82 -14 -98 0 -166 21 -100 56 -167 127 -242 68 -70 73 -94 31
-142 l-27 -31 -67 16 c-59 15 -75 15 -140 3 -153 -29 -279 -124 -341 -259 -50
-107 -64 -183 -49 -269 32 -190 137 -307 337 -377 l60 -21 -1 -50 c0 -27 -10
-123 -22 -214 -42 -330 -46 -427 -46 -1020 l-1 -575 -27 2 c-25 2 -212 79
-396 164 -80 37 -90 36 -97 -3 -4 -18 -5 -292 -3 -608 4 -641 3 -625 74 -709
46 -53 88 -77 265 -152 143 -60 313 -132 504 -214 55 -23 141 -59 190 -79 50
-21 119 -51 155 -66 36 -16 133 -56 215 -90 83 -34 183 -77 223 -96 40 -19 77
-34 83 -34 5 0 17 -4 27 -9 21 -12 119 -55 347 -151 94 -39 211 -89 260 -110
50 -21 108 -45 130 -53 37 -14 93 -37 340 -142 50 -21 119 -51 155 -68 36 -16
92 -40 125 -53 33 -12 98 -39 145 -59 47 -20 126 -52 175 -71 50 -19 101 -40
115 -46 14 -6 72 -30 130 -53 58 -24 161 -66 230 -95 69 -28 157 -63 197 -77
77 -26 105 -51 153 -134 14 -24 66 -85 115 -135 133 -135 286 -217 497 -265
73 -17 112 -20 255 -16 186 4 249 16 385 69 125 50 191 92 288 185 61 58 101
108 138 170 l53 88 192 77 c105 42 237 92 292 113 55 20 154 59 220 87 66 28
152 64 190 80 39 16 79 33 90 38 43 21 262 113 296 126 20 7 139 56 265 110
126 53 254 107 284 119 87 36 133 55 167 71 17 8 34 14 37 14 3 0 33 13 68 29
35 16 239 102 453 191 390 161 429 178 495 207 19 9 60 26 90 38 166 68 232
96 300 128 41 19 116 50 165 70 50 19 126 52 170 72 44 20 114 53 157 72 91
42 146 95 185 178 l28 60 0 610 0 610 -24 -3 c-13 -2 -49 -15 -80 -29 -31 -14
-94 -42 -141 -63 -47 -21 -106 -47 -132 -59 -26 -11 -51 -21 -54 -21 -3 0 -21
-7 -40 -16 -68 -32 -64 -69 -64 603 0 351 -4 652 -10 713 -20 196 -41 365 -50
400 -5 19 -10 55 -12 80 l-3 45 60 21 c33 11 78 29 100 39 51 24 155 129 179
180 10 22 25 54 33 70 9 18 17 69 20 130 5 118 -12 180 -78 282 -87 133 -277
215 -424 183 -27 -6 -68 -13 -90 -16 -40 -6 -40 -6 -61 43 -23 52 -19 77 15
88 35 11 131 123 164 192 28 61 32 80 36 173 1 59 -2 129 -9 160 -45 205 -236
354 -455 355 -66 0 -97 -6 -207 -42 -26 -8 -53 -13 -61 -11 -8 2 -55 48 -103
103 l-89 100 -6 115 c-5 100 -10 122 -34 167 -32 62 -122 163 -168 191 -62 38
-157 63 -237 62 -41 -1 -83 -1 -93 -1 -17 0 -61 31 -218 156 l-56 44 -6 93
c-5 102 -20 144 -76 226 -44 65 -156 143 -238 167 -115 34 -300 4 -390 -62
-17 -12 -36 -23 -40 -23 -5 0 -52 22 -104 48 -51 27 -107 54 -124 60 -16 6
-77 31 -135 57 -292 130 -637 225 -952 264 -31 4 -59 9 -60 11 -2 3 -21 39
-41 82 -59 122 -193 224 -337 257 -68 16 -187 12 -260 -8z m205 -195 c116 -30
207 -104 253 -204 23 -50 27 -70 27 -157 0 -91 -3 -105 -30 -158 -46 -92 -138
-166 -243 -198 l-42 -12 2 -401 3 -401 50 -11 c59 -13 122 -44 186 -90 l46
-33 24 21 c35 32 117 107 264 244 72 66 170 156 219 200 81 71 90 77 100 60 6
-11 19 -28 29 -38 9 -10 17 -22 17 -26 0 -10 -128 -134 -382 -370 -109 -101
-198 -186 -198 -189 0 -3 6 -19 14 -36 33 -78 37 -94 43 -166 18 -233 -150
-449 -382 -492 -108 -20 -246 1 -346 52 -68 34 -152 127 -196 215 -37 77 -38
80 -37 188 0 91 5 122 24 170 l23 59 -100 96 c-55 53 -150 143 -213 201 -63
58 -150 139 -193 181 l-80 75 39 37 c22 20 43 37 47 37 5 0 54 -44 110 -98 56
-55 131 -125 167 -158 36 -32 112 -105 171 -161 58 -57 108 -103 112 -103 4 0
35 19 69 43 80 54 185 97 236 97 l22 0 0 323 c0 177 -3 358 -6 403 l-7 81 -36
13 c-56 20 -136 75 -164 112 -66 88 -72 105 -72 223 0 120 11 152 79 240 53
69 109 104 204 130 62 17 87 17 147 1z m-1008 -430 c239 -121 244 -456 8 -571
-63 -31 -178 -43 -242 -26 -153 42 -264 217 -233 368 26 129 112 222 235 254
56 15 180 2 232 -25z m2090 -7 c59 -16 144 -94 173 -161 65 -148 0 -330 -145
-406 -42 -22 -63 -26 -130 -26 -68 0 -89 4 -137 28 -63 31 -115 82 -150 148
-18 35 -22 59 -22 128 1 136 48 214 168 277 61 32 148 36 243 12z m-3374 -54
c118 -36 195 -129 205 -251 10 -135 -70 -248 -203 -286 -123 -34 -271 27 -327
136 -13 26 -23 67 -26 113 -6 100 16 160 85 223 82 75 166 96 266 65z m4498
-219 c150 -72 207 -234 134 -380 -31 -62 -95 -120 -146 -131 l-26 -6 -6 -217
c-12 -383 -9 -896 6 -914 6 -9 39 -30 72 -46 l59 -30 182 186 181 186 39 -34
c22 -18 39 -39 39 -46 0 -7 -78 -92 -172 -188 -99 -100 -173 -183 -173 -194 0
-23 45 -67 59 -58 5 4 40 10 78 15 37 5 109 18 158 29 50 11 123 23 162 27 48
5 81 14 97 26 27 21 73 25 108 8 20 -8 54 1 203 56 99 37 194 69 212 72 33 6
37 11 64 103 18 59 78 123 144 155 41 19 70 25 123 25 124 0 203 -43 257 -141
27 -48 30 -63 30 -139 0 -93 -16 -133 -78 -198 -56 -58 -102 -76 -197 -76 -74
-1 -93 3 -143 27 -53 27 -72 45 -139 140 -12 17 -25 14 -218 -63 -113 -45
-221 -92 -240 -105 -56 -37 -75 -39 -122 -11 -40 23 -48 24 -108 16 -96 -13
-363 -60 -368 -65 -2 -2 -5 -61 -6 -132 -1 -126 -2 -129 -38 -203 -85 -174
-269 -280 -464 -266 -133 10 -229 51 -315 136 -64 63 -99 126 -123 218 -20 79
-20 113 0 199 31 136 127 264 237 317 69 34 214 69 255 63 l32 -6 -2 562 -3
561 -43 13 c-66 19 -106 48 -146 106 -48 70 -63 139 -47 212 20 91 103 179
191 204 51 15 159 8 201 -13z m-4141 -409 c31 -28 120 -113 200 -187 217 -204
210 -193 210 -299 0 -25 4 -51 8 -57 4 -6 31 -14 59 -17 69 -8 112 -29 162
-79 130 -132 73 -352 -108 -415 -101 -35 -228 10 -295 104 -24 35 -30 55 -34
116 -6 91 7 133 59 193 36 42 39 50 39 104 0 97 -17 124 -163 258 -73 66 -163
152 -202 191 l-69 71 34 35 c19 19 36 35 39 35 4 0 31 -24 61 -53z m-705 -181
c132 -63 208 -207 181 -348 -25 -131 -100 -213 -232 -253 -63 -19 -93 -19
-162 1 -101 30 -174 92 -215 183 -29 65 -28 188 1 253 28 62 100 134 165 163
74 34 192 34 262 1z m4167 -99 c148 -70 248 -225 248 -387 0 -171 -108 -309
-297 -381 -52 -20 -62 -28 -67 -52 -3 -16 -6 -344 -6 -728 l0 -699 -43 -42
c-24 -24 -139 -131 -257 -238 -290 -264 -365 -333 -430 -393 -30 -29 -70 -64
-90 -78 -19 -15 -56 -46 -81 -70 -74 -71 -257 -239 -354 -326 -49 -44 -113
-105 -142 -135 l-51 -55 -4 -534 c-2 -294 -1 -537 2 -541 3 -5 12 9 19 30 34
94 224 338 402 513 213 211 307 293 600 524 78 62 439 303 589 393 525 316
949 519 1592 762 70 26 129 45 132 42 8 -7 7 -111 0 -137 -5 -21 -44 -42 -222
-120 -137 -60 -614 -300 -759 -380 -63 -36 -117 -65 -118 -65 -12 0 -476 -280
-617 -373 -154 -102 -365 -254 -464 -336 -17 -14 -60 -48 -95 -76 -35 -27 -66
-52 -69 -55 -3 -3 -45 -40 -95 -81 -49 -42 -132 -116 -183 -165 -92 -88 -92
-89 -92 -138 0 -43 4 -53 36 -82 19 -19 41 -34 48 -34 33 0 102 48 216 151
108 97 163 141 335 274 17 13 59 46 95 74 99 76 465 332 555 388 79 49 409
243 515 302 112 63 577 294 737 367 91 41 222 102 292 136 131 62 215 98 231
98 12 0 14 -599 2 -617 -9 -14 -73 -41 -317 -133 -287 -107 -346 -130 -395
-152 -113 -51 -159 -57 -123 -14 25 29 43 63 43 80 0 8 11 36 24 63 13 26 31
64 40 83 9 19 24 45 32 58 13 18 14 22 2 22 -7 0 -22 -6 -33 -14 -11 -7 -30
-16 -43 -20 -12 -4 -57 -27 -100 -50 -42 -24 -135 -74 -207 -111 -71 -38 -152
-83 -180 -100 -27 -18 -66 -41 -85 -51 -29 -16 -122 -72 -413 -248 -80 -49
-300 -196 -378 -253 -48 -35 -91 -63 -98 -63 -6 0 -11 -4 -11 -10 0 -5 -7 -10
-15 -10 -8 0 -15 -4 -15 -8 0 -5 -17 -18 -37 -29 -21 -12 -110 -75 -199 -140
-89 -65 -196 -143 -239 -173 -82 -58 -98 -70 -245 -190 -185 -150 -433 -416
-535 -575 -72 -110 -149 -253 -171 -314 -15 -42 -34 -63 -34 -38 0 10 -4 25
-9 35 -5 9 -17 35 -27 57 -11 22 -21 42 -24 45 -3 3 -16 27 -30 55 -78 154
-252 378 -439 565 -154 154 -270 249 -486 403 -150 106 -292 209 -373 270 -75
56 -243 175 -342 242 -52 35 -134 91 -183 124 -48 33 -108 72 -135 87 -66 37
-266 157 -272 164 -3 3 -39 22 -80 44 -41 21 -81 43 -88 49 -20 16 -72 44
-157 86 -44 21 -136 66 -205 99 -86 42 -133 59 -148 55 -21 -5 -31 -23 -13
-23 4 0 11 -16 14 -36 3 -20 18 -51 32 -69 14 -19 25 -36 25 -39 0 -11 64
-111 80 -124 37 -32 -67 1 -280 88 -229 93 -282 113 -474 180 -60 21 -112 42
-117 47 -9 9 -15 601 -6 609 9 10 149 -45 307 -119 41 -19 127 -59 190 -89 63
-30 140 -65 170 -78 166 -73 677 -341 813 -427 22 -14 60 -36 85 -50 26 -15
85 -52 132 -83 47 -31 135 -88 195 -125 271 -170 662 -464 890 -670 54 -49
108 -98 119 -108 26 -22 76 -36 110 -30 32 7 76 66 76 104 0 53 -88 144 -370
383 -176 149 -540 414 -753 548 -238 150 -263 166 -392 240 -228 132 -704 378
-895 463 -58 26 -124 56 -147 66 -24 11 -54 24 -67 29 -14 5 -43 21 -66 35
l-40 25 0 76 0 76 35 -6 c19 -4 75 -23 123 -43 388 -159 827 -350 903 -392 9
-5 70 -38 135 -72 487 -256 935 -550 1374 -903 111 -89 434 -400 517 -497 63
-74 181 -236 212 -292 18 -32 34 -57 35 -55 2 2 1 239 -2 528 l-4 525 -72 70
c-64 64 -214 203 -351 325 -27 25 -79 72 -115 106 -146 135 -197 182 -235 215
-148 128 -262 235 -420 395 -77 78 -187 176 -245 219 -142 106 -200 154 -297
249 l-82 80 -96 -47 c-52 -26 -106 -47 -118 -47 -32 0 -337 271 -337 300 0 5
9 14 20 20 11 6 23 22 26 35 3 14 8 25 11 25 7 0 51 -35 98 -78 93 -84 184
-162 190 -162 4 0 54 23 111 51 69 34 108 48 118 42 8 -4 81 -69 161 -143 81
-74 151 -136 156 -138 5 -2 9 160 9 367 l0 371 -97 93 c-54 50 -152 144 -218
207 -66 64 -163 156 -215 205 -52 50 -130 126 -173 169 l-78 79 38 39 c20 21
41 38 46 38 9 0 189 -166 412 -381 61 -58 157 -150 215 -205 172 -163 178
-170 186 -210 4 -21 4 -217 0 -435 -5 -297 -4 -403 4 -420 14 -24 167 -173
340 -329 63 -57 152 -139 196 -182 45 -43 86 -78 92 -78 5 0 13 7 16 16 3 9 6
161 6 339 l0 323 -55 22 c-128 52 -198 155 -198 290 1 173 118 293 288 293
116 0 210 -56 263 -157 23 -44 27 -63 27 -136 0 -69 -4 -93 -23 -127 -24 -46
-41 -54 -49 -24 -5 20 -42 41 -74 41 -16 0 -19 4 -14 23 4 12 11 26 16 32 26
27 -3 126 -48 165 -29 26 -42 30 -94 30 -99 0 -139 -43 -139 -147 0 -64 17
-90 93 -147 34 -26 77 -99 77 -132 0 -7 8 -17 18 -23 16 -9 17 -39 17 -404 0
-335 2 -397 15 -412 8 -10 60 -59 115 -108 55 -50 171 -158 257 -240 146 -138
201 -187 210 -187 1 0 1 77 -1 170 -4 215 -3 220 48 216 21 -2 43 -6 50 -10 7
-5 11 -65 11 -192 0 -106 4 -184 9 -184 5 0 18 10 28 23 10 12 110 107 223
211 113 104 226 209 253 233 l47 45 0 431 0 430 -63 61 c-83 79 -111 148 -104
249 9 133 89 233 218 272 195 59 399 -92 399 -297 0 -106 -43 -192 -123 -246
-45 -31 -127 -62 -163 -62 -16 0 -23 -8 -28 -31 -7 -38 -8 -662 -1 -681 8 -19
38 8 360 319 l262 253 6 457 c4 252 7 568 7 703 l0 245 -62 24 c-122 46 -208
121 -257 224 -35 77 -44 140 -31 225 25 155 127 279 275 334 77 28 230 21 307
-15z m1484 4 c59 -27 118 -84 145 -139 33 -68 33 -188 0 -255 -29 -58 -69
-100 -125 -130 -61 -32 -194 -31 -260 2 -99 52 -155 144 -156 256 0 166 120
283 290 284 43 0 79 -6 106 -18z m-6904 -674 c60 -27 129 -96 153 -153 24 -59
20 -165 -10 -229 -82 -172 -324 -215 -463 -82 -55 52 -92 136 -92 209 0 54 37
145 79 191 77 86 221 113 333 64z m1194 -277 c182 -90 253 -295 164 -470 -26
-50 -97 -118 -153 -147 -100 -50 -249 -41 -350 23 -185 116 -205 382 -40 540
64 60 126 83 234 83 76 1 93 -2 145 -29z m2664 -800 l5 -505 35 -6 c83 -14
177 -87 212 -166 77 -174 -20 -365 -209 -413 -40 -10 -53 -18 -53 -32 0 -10
-7 -18 -15 -18 -8 0 -15 5 -15 10 0 6 -7 10 -15 10 -8 0 -15 -4 -15 -10 0 -5
-4 -10 -10 -10 -5 0 -10 9 -10 19 0 13 -27 38 -79 75 -97 68 -125 104 -140
180 -19 101 -14 155 18 211 35 60 62 87 121 118 l45 24 5 509 c3 280 6 510 8
512 1 2 26 2 55 0 l52 -3 5 -505z m-4369 116 c51 -21 83 -50 119 -106 l32 -50
169 0 c148 0 174 2 205 19 36 20 56 19 84 -4 8 -7 71 -34 140 -60 312 -120
707 -289 1038 -446 95 -44 116 -51 132 -41 11 6 21 8 24 3 3 -5 31 -12 61 -16
57 -7 85 -24 85 -53 0 -32 39 -81 87 -108 26 -15 102 -59 168 -99 66 -40 170
-102 232 -138 339 -200 658 -417 848 -576 115 -97 348 -329 448 -449 43 -50
75 -92 71 -92 -4 0 -55 44 -113 98 -88 82 -275 237 -382 318 -14 10 -68 51
-120 90 -131 99 -606 414 -625 414 -2 0 -43 24 -91 53 -49 30 -122 73 -163 97
-41 24 -103 61 -137 82 -34 21 -65 38 -68 38 -4 0 -57 29 -120 65 -62 36 -125
65 -139 65 -40 0 -84 26 -102 61 -13 25 -43 44 -167 104 -84 40 -174 83 -202
95 -27 13 -78 36 -113 51 -34 16 -65 29 -68 29 -3 0 -20 6 -37 14 -42 18 -445
183 -566 231 l-94 37 -38 -22 c-43 -24 -70 -21 -106 12 -24 22 -32 23 -206 20
l-118 -2 -24 -53 c-42 -95 -93 -140 -192 -166 -32 -9 -54 -9 -90 0 -94 23
-150 64 -189 139 -27 51 -25 162 3 216 27 51 74 99 122 124 44 23 153 27 202
6z m8717 -18 c99 -24 171 -96 191 -190 40 -182 -124 -335 -303 -283 -29 9 -62
24 -74 35 -12 11 -25 20 -31 20 -5 0 -19 19 -31 43 -69 132 -60 125 -172 126
-61 1 -85 -3 -110 -19 -39 -24 -71 -26 -88 -5 -17 21 -44 19 -120 -9 -36 -14
-117 -43 -180 -67 -286 -104 -618 -240 -797 -325 -62 -30 -115 -54 -117 -54
-6 0 -175 -77 -197 -89 -22 -13 -33 -2 -45 47 -8 31 -8 44 0 49 25 16 191 95
336 161 322 145 996 402 1055 402 7 0 29 11 49 25 41 28 82 32 105 11 12 -11
46 -15 120 -17 l103 -1 51 50 c60 58 83 71 152 88 28 7 51 13 53 13 2 1 24 -4
50 -11z m-5104 -103 c3 -8 1 -15 -4 -15 -6 0 -10 7 -10 15 0 8 2 15 4 15 2 0
6 -7 10 -15z m2801 -375 c4 -27 6 -74 5 -102 -5 -110 -2 -127 31 -161 99 -102
72 -217 -66 -278 -86 -38 -601 -346 -789 -472 -145 -98 -472 -333 -548 -395
-64 -52 -226 -190 -238 -202 -3 -3 -38 -35 -78 -72 -73 -68 -113 -92 -68 -40
13 15 43 50 66 77 71 85 300 313 400 400 245 211 525 408 880 618 254 150 248
146 232 189 -6 19 -12 51 -12 72 0 37 26 96 43 96 23 0 37 74 37 195 l0 125
49 0 49 0 7 -50z m-3585 -275 c41 -21 74 -87 65 -131 -9 -51 -66 -104 -111
-104 -79 0 -124 43 -124 118 0 102 86 161 170 117z m-2209 -1209 c78 -30 162
-67 436 -192 161 -74 796 -392 863 -432 19 -11 71 -40 115 -63 44 -23 115 -64
157 -91 43 -26 80 -48 83 -48 6 0 277 -168 389 -242 49 -32 92 -58 97 -58 4 0
9 -4 11 -8 2 -5 28 -25 58 -45 76 -50 242 -168 256 -181 7 -6 24 -20 40 -31
15 -11 44 -33 64 -50 20 -16 56 -46 80 -65 295 -236 545 -523 713 -819 90
-160 126 -240 152 -336 15 -55 12 -65 -14 -65 -25 0 -209 -48 -233 -61 -10 -6
-50 -13 -87 -16 l-68 -6 -186 92 c-102 50 -190 91 -196 91 -6 0 -11 5 -11 10
0 6 -5 10 -11 10 -7 0 -80 33 -163 74 -378 184 -546 264 -661 316 -27 13 -79
36 -115 52 -36 17 -85 38 -110 48 -25 10 -74 31 -110 48 -36 16 -128 55 -205
86 -77 31 -149 61 -160 65 -49 21 -93 39 -125 51 -19 7 -48 18 -65 25 -16 7
-73 28 -125 48 -219 81 -370 137 -440 162 -41 15 -84 30 -95 35 -11 5 -47 18
-80 29 -33 11 -112 38 -175 61 -63 23 -151 54 -195 69 -106 38 -346 129 -365
139 -8 4 -41 17 -73 27 l-58 20 7 75 c3 41 8 77 10 79 2 2 54 -11 116 -29 216
-62 414 -111 528 -130 63 -11 153 -30 200 -41 47 -12 103 -25 125 -29 41 -8
244 -60 390 -100 44 -12 123 -32 175 -45 154 -37 264 -67 283 -77 10 -5 23 -8
29 -6 6 2 -18 18 -53 35 -149 71 -240 113 -248 113 -5 0 -31 11 -58 24 -78 39
-165 77 -206 92 -22 8 -55 22 -75 33 -21 10 -62 29 -92 41 -30 12 -84 36 -120
53 -201 93 -232 107 -235 107 -3 0 -52 23 -110 50 -58 28 -107 50 -110 50 -2
0 -57 25 -120 55 -64 30 -119 55 -121 55 -3 0 -31 12 -62 26 -31 14 -67 30
-79 35 -21 8 -23 15 -23 74 0 36 3 65 8 65 6 0 420 -129 532 -167 50 -16 99
-28 180 -41 30 -5 96 -22 145 -37 87 -26 170 -49 285 -81 68 -19 108 -32 435
-140 143 -48 277 -95 298 -106 22 -11 41 -17 43 -15 15 14 -159 111 -286 158
-36 13 -217 104 -730 366 -324 165 -383 196 -390 203 -3 3 -25 15 -50 28 -166
83 -280 150 -281 165 -2 27 2 103 7 119 5 16 11 15 62 -11 31 -15 147 -63 257
-106 110 -43 234 -91 275 -107 92 -37 598 -247 619 -258 9 -4 27 -13 41 -18
388 -167 839 -399 1075 -552 33 -22 92 -59 130 -83 174 -109 406 -289 553
-429 44 -42 72 -62 72 -53 0 20 -171 197 -247 256 -31 24 -77 63 -104 86 -57
49 -337 259 -395 295 -22 15 -47 32 -55 40 -22 21 -473 318 -483 318 -3 0 -36
19 -73 42 -75 46 -234 138 -239 138 -1 0 -35 19 -76 43 -109 65 -160 93 -308
170 -149 77 -409 207 -414 207 -2 0 -65 29 -141 65 -75 36 -138 65 -141 65 -6
0 -206 99 -212 105 -10 9 5 5 69 -19z m7438 -5 c-20 -11 -63 -31 -96 -45 -32
-13 -115 -51 -183 -84 -69 -32 -172 -81 -230 -107 -273 -127 -669 -334 -890
-467 -41 -24 -100 -58 -130 -75 -104 -58 -400 -248 -556 -358 -129 -90 -354
-261 -374 -285 -3 -3 -48 -41 -100 -84 -164 -135 -303 -277 -287 -293 5 -4
127 95 157 127 19 21 192 158 270 215 52 38 97 72 98 77 2 4 8 8 14 8 5 0 55
31 111 68 193 130 632 369 912 497 173 79 644 276 890 372 329 128 444 172
515 198 41 15 79 32 85 36 5 5 15 9 22 9 11 0 13 -18 11 -77 -4 -90 24 -67
-248 -206 -513 -262 -1084 -544 -1200 -592 -126 -53 -306 -152 -296 -163 2 -2
30 9 63 23 73 34 141 58 268 95 105 30 293 86 555 164 85 26 180 54 210 62 30
8 69 19 87 25 17 5 44 7 59 3 18 -5 25 -3 21 4 -4 6 9 12 36 15 23 2 71 13
107 25 165 51 477 151 493 157 14 6 17 2 17 -26 0 -19 -3 -50 -6 -71 -7 -38
-28 -53 -129 -91 -22 -8 -88 -38 -148 -66 -59 -28 -110 -51 -112 -51 -6 0 -63
-26 -195 -88 -52 -24 -113 -52 -135 -63 -53 -25 -267 -116 -330 -141 -27 -11
-78 -33 -113 -49 -35 -16 -66 -29 -68 -29 -3 0 -43 -18 -90 -40 -47 -22 -94
-40 -105 -40 -10 0 -19 -4 -19 -8 0 -4 -17 -14 -37 -21 -62 -22 -193 -85 -193
-93 0 -11 44 -10 56 1 5 4 41 16 79 25 39 10 84 21 100 26 17 5 64 16 105 26
41 9 127 30 190 46 153 39 420 106 495 123 33 8 89 17 125 20 65 6 146 25 465
111 94 25 177 46 185 47 12 2 15 -12 15 -66 0 -37 -2 -71 -5 -75 -7 -11 -106
-57 -175 -82 -33 -12 -121 -44 -195 -72 -74 -27 -164 -60 -200 -73 -36 -13
-130 -47 -210 -76 -189 -68 -329 -118 -360 -128 -30 -10 -370 -136 -420 -155
-19 -8 -62 -24 -95 -37 -33 -12 -80 -31 -105 -41 -73 -31 -79 -33 -223 -92
-75 -31 -215 -90 -310 -132 -94 -42 -185 -82 -202 -89 -16 -7 -61 -27 -98 -44
-38 -17 -71 -31 -73 -31 -3 0 -60 -27 -127 -59 -135 -65 -307 -147 -407 -193
-36 -17 -159 -76 -275 -133 -277 -135 -269 -133 -342 -111 -181 54 -261 75
-282 76 -21 0 -23 4 -18 32 3 18 17 59 31 90 14 31 26 59 26 63 0 3 21 49 46
103 63 135 192 337 262 410 6 7 12 16 12 20 0 14 148 178 260 287 86 84 124
118 270 235 24 19 48 40 54 45 41 37 321 245 331 245 3 0 27 17 54 38 114 89
591 378 866 524 166 89 520 268 640 323 33 15 116 54 184 86 68 33 125 59 127
59 1 0 35 15 76 34 172 78 332 143 358 145 8 1 -2 -8 -21 -18z m999 -1208 l-3
-316 -75 -38 c-87 -43 -144 -69 -295 -134 -60 -26 -132 -58 -160 -70 -27 -12
-61 -26 -75 -30 -14 -4 -45 -17 -70 -30 -53 -26 -50 -25 -260 -110 -91 -37
-189 -78 -218 -91 -29 -13 -57 -24 -62 -24 -6 0 -18 -4 -28 -9 -9 -5 -57 -26
-107 -46 -49 -21 -109 -46 -132 -56 -23 -11 -44 -19 -47 -19 -3 0 -35 -13 -70
-30 -36 -16 -77 -32 -91 -36 -14 -3 -28 -10 -31 -15 -3 -5 -12 -9 -19 -9 -8 0
-38 -11 -67 -25 -29 -13 -114 -49 -189 -79 -130 -52 -163 -66 -287 -122 -29
-13 -58 -24 -65 -24 -7 0 -17 -4 -22 -9 -6 -5 -41 -21 -80 -36 -38 -15 -92
-37 -120 -50 -27 -13 -167 -71 -310 -130 -143 -58 -269 -110 -280 -114 -11 -5
-40 -18 -65 -29 -25 -11 -81 -34 -125 -52 -44 -18 -99 -41 -123 -51 -23 -11
-72 -31 -108 -44 -36 -14 -95 -38 -132 -55 -79 -37 -94 -43 -147 -63 -22 -8
-66 -27 -97 -41 -31 -14 -63 -26 -71 -26 -7 0 -18 -10 -24 -22 -30 -66 -37
-78 -45 -78 -4 0 -8 -6 -8 -12 0 -7 -14 -26 -30 -41 -16 -16 -27 -34 -24 -41
2 -6 -6 -16 -18 -21 -16 -7 -22 -18 -20 -34 2 -17 -2 -22 -13 -17 -9 3 -13 2
-10 -4 9 -14 -17 -49 -32 -43 -8 3 -13 0 -11 -7 3 -14 -55 -58 -122 -92 -62
-31 -69 -33 -40 -9 l25 21 -32 -9 c-17 -5 -40 -14 -50 -20 -17 -10 -17 -10 0
-11 32 0 -3 -24 -58 -39 -75 -21 -121 -25 -130 -10 -6 9 -1 10 20 7 33 -7 96
16 71 25 -8 3 -43 1 -78 -4 -103 -18 -214 -2 -358 48 -25 9 -52 23 -61 30 -23
19 -89 52 -89 44 0 -6 52 -44 94 -68 43 -25 -9 -13 -63 14 -77 40 -169 133
-131 133 6 0 10 -6 10 -12 0 -7 18 -23 40 -35 22 -12 40 -19 40 -16 0 3 -20
25 -46 49 -25 24 -70 74 -100 110 -37 46 -54 61 -55 48 0 -14 -2 -15 -6 -4 -2
8 -8 24 -12 35 -5 11 -12 33 -17 49 -11 36 35 13 -389 191 -16 7 -59 25 -95
40 -36 15 -81 34 -100 42 -19 8 -48 20 -65 27 -16 7 -43 19 -60 26 -16 7 -37
16 -46 20 -9 5 -33 12 -53 15 -20 4 -36 11 -36 16 0 5 -6 9 -14 9 -8 0 -31 9
-53 19 -46 24 -91 42 -158 66 -49 18 -143 58 -178 76 -9 5 -51 23 -91 39 -41
16 -96 39 -123 51 -98 44 -111 49 -122 49 -6 0 -11 4 -11 8 0 4 -24 16 -53 26
-53 18 -178 67 -232 91 -16 8 -51 23 -77 34 -26 12 -50 21 -53 21 -3 0 -43 16
-88 36 -130 58 -145 64 -151 64 -3 0 -25 8 -49 18 -23 11 -91 40 -152 67 -60
26 -137 58 -170 70 -89 33 -95 35 -151 61 -27 12 -75 32 -105 44 -30 12 -67
27 -84 35 -16 7 -70 29 -120 50 -49 21 -118 50 -152 66 -34 16 -68 29 -76 29
-7 0 -17 4 -23 9 -5 5 -26 14 -47 21 -21 6 -34 16 -31 22 4 6 -1 8 -14 4 -12
-4 -31 -1 -44 7 -13 8 -63 32 -113 52 -49 20 -121 51 -160 68 -124 54 -160 69
-180 76 -11 5 -54 24 -96 44 -72 33 -76 38 -82 74 -10 56 -8 561 1 567 4 2 26
-5 47 -17 l40 -23 5 -231 c3 -127 7 -233 10 -235 3 -2 77 -32 165 -67 88 -35
259 -104 380 -153 121 -49 288 -117 370 -150 132 -54 1015 -417 1215 -500 41
-17 100 -41 130 -54 30 -12 129 -54 220 -92 91 -39 370 -156 620 -260 250
-104 527 -221 615 -260 88 -38 189 -82 225 -97 36 -15 70 -31 76 -36 6 -5 14
-34 18 -64 3 -31 10 -63 15 -73 61 -121 88 -160 157 -228 98 -97 204 -145 362
-164 252 -32 476 49 622 227 62 74 115 193 115 257 l0 38 155 68 c153 67 367
158 750 320 107 45 219 93 248 106 29 13 55 24 58 24 5 0 269 108 329 135 101
45 239 103 385 161 47 19 94 39 105 44 28 13 812 335 1255 515 379 153 640
262 690 288 l25 13 3 246 2 245 38 16 c20 8 43 15 50 16 10 1 12 -65 10 -316z
m-4543 -1628 c33 -7 78 -18 100 -24 49 -13 145 -48 154 -56 3 -4 -18 -29 -47
-57 -43 -41 -55 -48 -67 -38 -8 7 -20 10 -27 7 -7 -2 -20 0 -30 4 -9 5 -63 16
-120 25 -107 18 -195 19 -276 4 -102 -19 -148 -30 -168 -41 -16 -8 -27 -8 -44
1 -15 8 -20 8 -16 1 12 -19 -10 -12 -29 9 -11 12 -36 30 -57 42 -20 12 -39 27
-42 34 -9 24 192 88 339 108 55 8 269 -4 330 -19z"/>
<path d="M5044 9331 c-51 -23 -98 -80 -114 -138 -26 -90 27 -210 109 -253 53
-27 148 -27 200 -1 129 67 172 228 85 329 -66 78 -188 105 -280 63z m145 -163
c27 -28 36 -59 21 -68 -7 -4 -9 -13 -6 -19 4 -6 3 -11 -3 -11 -5 0 -16 -3 -25
-6 -10 -4 -16 -1 -16 10 0 12 -5 14 -25 6 -18 -7 -23 -6 -19 4 3 7 -1 16 -9
19 -19 7 -17 65 3 77 25 16 58 11 79 -12z"/>
<path d="M5060 7831 c-107 -22 -204 -108 -235 -206 -48 -154 17 -300 165 -373
46 -22 67 -27 131 -26 127 2 226 60 285 166 25 46 29 63 29 133 -1 63 -6 90
-24 127 -62 127 -219 207 -351 179z m113 -155 c110 -46 137 -178 53 -258 -66
-63 -152 -66 -212 -7 -65 63 -69 150 -11 216 52 59 108 75 170 49z"/>
<path d="M3975 8961 c-50 -30 -69 -68 -69 -141 -1 -77 22 -119 84 -150 75 -38
149 -22 208 44 69 79 45 203 -48 251 -41 21 -138 19 -175 -4z m119 -80 c27
-30 18 -91 -16 -110 -25 -14 -29 -14 -55 5 -38 29 -41 64 -7 97 32 32 54 34
78 8z"/>
<path d="M6125 8951 c-66 -41 -80 -66 -80 -146 0 -73 1 -75 40 -114 37 -39 42
-41 98 -41 62 0 99 14 134 52 66 72 36 217 -53 254 -46 19 -103 17 -139 -5z
m105 -102 c14 -25 12 -73 -2 -87 -7 -7 -26 -12 -44 -12 -25 0 -34 6 -43 28
-29 68 55 135 89 71z"/>
<path d="M2820 8899 c-65 -13 -119 -112 -100 -180 23 -81 136 -126 209 -83 42
25 71 74 71 123 0 100 -78 160 -180 140z m54 -95 c21 -21 20 -57 -3 -85 -16
-21 -22 -22 -45 -11 -33 15 -36 62 -6 92 24 24 34 25 54 4z"/>
<path d="M7255 8691 c-55 -25 -75 -58 -75 -125 0 -43 5 -60 25 -84 75 -89 192
-77 237 25 23 52 18 100 -14 145 -40 58 -102 71 -173 39z m83 -73 c7 -7 12
-27 12 -45 0 -38 -28 -58 -66 -49 -20 5 -24 13 -24 46 0 27 6 42 18 49 23 14
45 14 60 -1z"/>
<path d="M8949 7307 c-124 -82 -70 -271 77 -271 158 0 211 220 68 280 -50 21
-106 17 -145 -9z m39 -76 c8 -5 12 -23 10 -47 -3 -34 -6 -39 -28 -39 -21 0
-26 5 -28 33 -2 18 2 40 9 48 13 16 19 17 37 5z"/>
<path d="M7108 6920 c-36 -19 -93 -82 -118 -129 -20 -39 -16 -141 9 -188 34
-67 145 -133 222 -133 22 0 68 13 104 29 105 48 145 106 145 213 0 95 -47 165
-140 207 -61 28 -170 28 -222 1z"/>
<path d="M3700 7693 c-41 -15 -60 -46 -60 -97 1 -56 14 -81 57 -103 32 -17 80
-6 122 28 31 25 41 98 17 133 -21 34 -94 54 -136 39z m100 -42 c14 -27 13 -74
-3 -94 -12 -18 -74 -26 -95 -13 -18 11 -15 92 4 110 22 23 81 21 94 -3z"/>
<path d="M2374 8081 c-58 -35 -84 -81 -84 -145 0 -91 39 -145 121 -167 44 -12
50 -11 102 15 74 36 102 80 101 157 -1 44 -6 64 -25 87 -55 69 -151 92 -215
53z m116 -90 c27 -51 -7 -121 -59 -121 -34 0 -48 10 -60 43 -20 51 13 97 70
97 28 0 41 -5 49 -19z"/>
<path d="M6515 8081 c-101 -18 -197 -97 -241 -198 -44 -99 -30 -245 33 -336
52 -75 201 -144 294 -135 60 6 166 56 217 103 23 20 54 62 69 93 24 49 28 69
28 142 0 103 -28 172 -96 238 -79 76 -197 112 -304 93z m148 -134 c46 -20 103
-78 117 -122 17 -50 7 -131 -21 -179 -12 -21 -40 -50 -63 -64 -35 -23 -52 -27
-116 -27 -99 0 -146 29 -192 119 -44 86 1 215 91 263 51 27 133 31 184 10z"/>
<path d="M5801 6523 c-67 -48 -93 -162 -51 -230 27 -45 87 -73 155 -73 52 0
58 3 99 44 76 76 73 173 -7 241 -38 33 -45 35 -106 34 -44 0 -74 -5 -90 -16z
m116 -92 c19 -25 16 -69 -6 -81 -29 -15 -68 -12 -75 6 -28 72 37 132 81 75z"/>
<path d="M8089 8013 c-14 -2 -43 -22 -64 -43 -36 -37 -38 -43 -38 -98 0 -74
25 -113 88 -137 59 -23 106 -14 149 29 47 47 61 108 37 161 -10 22 -29 50 -42
61 -25 22 -84 35 -130 27z m55 -99 c20 -19 21 -68 2 -84 -8 -6 -25 -10 -38 -8
-19 2 -24 10 -26 41 -5 59 28 86 62 51z"/>
<path d="M1175 7343 c-98 -20 -148 -141 -92 -224 60 -91 192 -90 255 1 42 62
22 165 -40 203 -25 16 -92 27 -123 20z m51 -107 c22 -34 15 -70 -14 -74 -31
-5 -52 15 -52 47 0 51 39 67 66 27z"/>
<path d="M2306 7040 c-54 -27 -71 -45 -95 -96 -43 -92 -12 -187 76 -233 56
-29 144 -3 187 56 17 23 36 42 43 43 6 0 14 6 16 13 3 6 6 3 7 -8 1 -18 2 -18
15 5 42 73 -5 177 -100 221 -51 24 -100 23 -149 -1z"/>
<path d="M5081 5716 c-47 -35 -61 -59 -68 -115 -7 -64 0 -91 36 -129 100 -104
281 -34 281 109 0 54 -28 102 -79 136 -48 33 -125 32 -170 -1z m103 -88 c21
-29 20 -57 -1 -80 -21 -24 -48 -23 -73 2 -24 24 -26 57 -3 82 22 25 59 23 77
-4z"/>
<path d="M2088 3313 c6 -2 18 -2 25 0 6 3 1 5 -13 5 -14 0 -19 -2 -12 -5z"/>
<path d="M5800 2305 c-7 -9 -8 -15 -2 -15 5 0 12 7 16 15 3 8 4 15 2 15 -2 0
-9 -7 -16 -15z"/>
<path d="M1656 2505 c10 -8 25 -15 33 -15 11 0 9 4 -5 15 -10 8 -25 15 -33 15
-11 0 -9 -4 5 -15z"/>
<path d="M2314 2243 c10 -3 28 -14 39 -24 21 -20 37 -25 37 -11 0 11 -59 42
-78 41 -14 -1 -13 -2 2 -6z"/>
<path d="M2465 2170 c-3 -5 -2 -10 4 -10 5 0 13 5 16 10 3 6 2 10 -4 10 -5 0
-13 -4 -16 -10z"/>
<path d="M2600 2100 c0 -5 9 -10 21 -10 11 0 17 5 14 10 -3 6 -13 10 -21 10
-8 0 -14 -4 -14 -10z"/>
<path d="M3128 1893 c6 -2 18 -2 25 0 6 3 1 5 -13 5 -14 0 -19 -2 -12 -5z"/>
<path d="M3188 1873 c7 -3 16 -2 19 1 4 3 -2 6 -13 5 -11 0 -14 -3 -6 -6z"/>
<path d="M3274 1825 c16 -14 39 -25 50 -25 19 1 18 3 -9 25 -16 14 -39 25 -50
25 -18 0 -16 -3 9 -25z"/>
<path d="M3360 1800 c8 -5 22 -9 30 -9 10 0 8 3 -5 9 -27 12 -43 12 -25 0z"/>
<path d="M3420 1776 c0 -2 7 -7 16 -10 8 -3 12 -2 9 4 -6 10 -25 14 -25 6z"/>
<path d="M4188 1453 c7 -3 16 -2 19 1 4 3 -2 6 -13 5 -11 0 -14 -3 -6 -6z"/>
<path d="M4247 1429 c7 -7 15 -10 18 -7 3 3 -2 9 -12 12 -14 6 -15 5 -6 -5z"/>
<path d="M4378 1373 c7 -3 16 -2 19 1 4 3 -2 6 -13 5 -11 0 -14 -3 -6 -6z"/>
</g>
</svg>
